# xmcd CD database file
#
# Track frame offsets:
#	150
#	21168
#	41290
#	59892
#	80367
#	100376
#	120660
#	140978
#	158595
#	177227
#	196577
#	216724
#
# Disc length: 3177 seconds
#
# Revision: 0
# Processed by: cddbd v1.5.2PL0 Copyright (c) Steve Scherf et al.
# Submitted via: CDex 1.70beta2
#
DISCID=ac0c670c
DTITLE=Gabriel Katona - Rumors Have It
DYEAR=2004
DGENRE=Jazz
TTITLE0=More Than You Will Ever Know
TTITLE1=Rumors Have It
TTITLE2=Save Me From This Insanity
TTITLE3=Together As One
TTITLE4=What If?
TTITLE5=Hot Or Mild
TTITLE6=Make It Real
TTITLE7=What's It Gonna Take
TTITLE8=It's Up To You
TTITLE9=Let It Come To You
TTITLE10=No One Else But You
TTITLE11=That's All She Wrote
EXTD=YEAR: 2004
EXTT0=
EXTT1=
EXTT2=
EXTT3=
EXTT4=
EXTT5=
EXTT6=
EXTT7=
EXTT8=
EXTT9=
EXTT10=
EXTT11=
PLAYORDER=
